<?xml version="1.0" encoding="utf-8"?>
<!-- Generator: Adobe Illustrator 16.0.0, SVG Export Plug-In . SVG Version: 6.00 Build 0)  -->
<!DOCTYPE svg PUBLIC "-//W3C//DTD SVG 1.1//EN" "http://www.w3.org/Graphics/SVG/1.1/DTD/svg11.dtd">
<svg version="1.1" xmlns="http://www.w3.org/2000/svg" xmlns:xlink="http://www.w3.org/1999/xlink" x="0px" y="0px"
	 width="42.423px" height="64.513px" viewBox="0 0 42.423 64.513" enable-background="new 0 0 42.423 64.513" xml:space="preserve">
<g id="R" display="none">
</g>
<g id="Layer_1">
</g>
<g id="Layer_2">
</g>
<g id="Layer_3">
	<path fill="#F4A458" d="M38.104,20.563c-0.506-0.506-1.121-0.76-1.846-0.76h-6.814l-3.168,3.477h9.113v20.857H24.092
		c-0.725,0-1.342,0.252-1.848,0.758c-0.506,0.508-0.76,1.126-0.76,1.848v11.299H7.578V23.28h9.219l-3.203-3.477H6.711
		c-0.725,0-1.342,0.254-1.848,0.76c-0.508,0.508-0.76,1.123-0.76,1.846v36.502c0,0.723,0.252,1.34,0.76,1.846
		c0.506,0.505,1.123,0.76,1.848,0.76h17.381c0.723,0,1.52-0.18,2.389-0.542c0.869-0.363,1.557-0.797,2.064-1.303l8.473-8.475
		c0.508-0.508,0.941-1.195,1.305-2.064c0.361-0.87,0.543-1.666,0.543-2.391V22.409C38.865,21.687,38.611,21.071,38.104,20.563z
		 M34.574,48.726l-8.5,8.502c-0.217,0.217-0.59,0.416-1.113,0.596V47.612h10.211C34.99,48.137,34.791,48.509,34.574,48.726z"/>
	<path fill="#F4A458" d="M29.473,36.004H13.494c-0.26,0-0.473,0.082-0.639,0.249c-0.164,0.167-0.25,0.381-0.25,0.639v1.774
		c0,0.26,0.086,0.472,0.25,0.639c0.166,0.166,0.379,0.25,0.639,0.25h15.979c0.26,0,0.471-0.083,0.637-0.25
		c0.168-0.167,0.252-0.379,0.252-0.639v-1.774c0-0.258-0.084-0.472-0.252-0.639C29.943,36.086,29.732,36.004,29.473,36.004z"/>
	<path fill="#F4A458" d="M12.855,29.152c-0.164,0.167-0.25,0.379-0.25,0.639v1.775c0,0.257,0.086,0.472,0.25,0.637
		c0.166,0.167,0.379,0.25,0.639,0.25h15.979c0.26,0,0.471-0.083,0.637-0.25c0.168-0.165,0.252-0.379,0.252-0.637v-1.775
		c0-0.26-0.084-0.471-0.252-0.639c-0.166-0.167-0.377-0.25-0.637-0.25H13.494C13.234,28.902,13.021,28.985,12.855,29.152z"/>
	<g>
		<path fill="#F4A458" d="M21.533,22.946c-0.16,0-0.297-0.058-0.412-0.172l-6.084-6.6c-0.159-0.183-0.193-0.383-0.102-0.602
			c0.102-0.217,0.27-0.326,0.496-0.326h3.85V4.511c0-0.16,0.053-0.292,0.154-0.396c0.105-0.103,0.236-0.154,0.398-0.154h3.297
			c0.162,0,0.293,0.051,0.395,0.154c0.105,0.104,0.158,0.236,0.158,0.396v10.736h3.85c0.24,0,0.404,0.109,0.496,0.326
			c0.092,0.218,0.062,0.418-0.086,0.602l-6.016,6.6C21.812,22.888,21.682,22.946,21.533,22.946z"/>
	</g>
</g>
<g id="Layer_4" display="none">
</g>
</svg>
